# xmcd
#
# Track frame offsets:
#   150
#   17422
#   31275
#   46730
#   63875
#   79105
#   92772
#   111397
#   123347
#   138530
#   150712
#   167322
#   181872
#   194402
#   208785
#   223290
#   240797
#   256052
#   271145
#   285942
#   299680
#   311065
#   323025
#
# Disc length: 4486 seconds
#
# Revision: 0
# Processed by: cddbd v1.5.1PL0 Copyright (c) Steve Scherf et al.
# Submitted via: uFREEDB ActiveX Control 1.5
#
DISCID=3e118417
DTITLE=Nelsinho Rodrigues - Poderoso Rubi
DYEAR=1900
DGENRE=Blues
TTITLE0=Palavras
TTITLE1=Não Vá
TTITLE2=Eu Voltarei
TTITLE3=Lilian
TTITLE4=Fantasias
TTITLE5=Caprichos
TTITLE6=Sou Seu DJ Seu Cantor
TTITLE7=Doce Mel
TTITLE8=Don't Cry
TTITLE9=Sentimentos
TTITLE10=Sonho
TTITLE11=A Primeira Vez
TTITLE12=Brincar de Amor
TTITLE13=Pelo Nosso Amor
TTITLE14=Paixão Adolescente
TTITLE15=Romance a Dois
TTITLE16=É Só Telefonar
TTITLE17=Gererê
TTITLE18=Briga de Casal
TTITLE19=Odalisca
TTITLE20=Lanna
TTITLE21=Momentos de Amor
TTITLE22=Me Libera
EXTD=
EXTT0=
EXTT1=
EXTT2=
EXTT3=
EXTT4=
EXTT5=
EXTT6=
EXTT7=
EXTT8=
EXTT9=
EXTT10=
EXTT11=
EXTT12=
EXTT13=
EXTT14=
EXTT15=
EXTT16=
EXTT17=
EXTT18=
EXTT19=
EXTT20=
EXTT21=
EXTT22=
PLAYORDER=
